<svg width="15" height="16" viewBox="0 0 15 16" fill="none" xmlns="http://www.w3.org/2000/svg">
<rect x="15" y="0.499878" width="2.99996" height="3" transform="rotate(90 15 0.499878)" fill="#D9D9D9"/>
<rect x="12" y="3.50037" width="2.99996" height="3" transform="rotate(90 12 3.50037)" fill="#D9D9D9"/>
<rect x="12" y="9.50012" width="2.99996" height="3" transform="rotate(90 12 9.50012)" fill="#D9D9D9"/>
<rect x="15" y="12.5001" width="2.99996" height="3" transform="rotate(90 15 12.5001)" fill="#D9D9D9"/>
<rect x="9" y="6.50037" width="2.99996" height="3" transform="rotate(90 9 6.50037)" fill="#D9D9D9"/>
<rect y="15.5001" width="2.99996" height="3" transform="rotate(-90 0 15.5001)" fill="#D9D9D9"/>
<rect x="3" y="12.4996" width="2.99996" height="3" transform="rotate(-90 3 12.4996)" fill="#D9D9D9"/>
<rect x="3" y="6.49988" width="2.99996" height="3" transform="rotate(-90 3 6.49988)" fill="#D9D9D9"/>
<rect y="3.49988" width="2.99996" height="3" transform="rotate(-90 0 3.49988)" fill="#D9D9D9"/>
<rect x="6" y="9.49963" width="2.99996" height="3" transform="rotate(-90 6 9.49963)" fill="#D9D9D9"/>
</svg>
