<svg width="26" height="16" viewBox="0 0 26 16" fill="none" xmlns="http://www.w3.org/2000/svg">
<path d="M18.0321 4.31894L19.4949 6.03769C19.6624 6.23074 19.8109 6.38953 19.871 6.47983C20.3084 6.91461 20.5537 7.50221 20.5534 8.11453C20.5123 8.83685 20.0415 9.32885 19.6055 9.85505L18.5819 11.0569L18.0479 11.6797C18.0287 11.7012 18.0164 11.7277 18.0124 11.756C18.0083 11.7844 18.0128 11.8132 18.0253 11.839C18.0377 11.8648 18.0575 11.8865 18.0824 11.9014C18.1072 11.9162 18.1358 11.9235 18.1648 11.9226H23.5012C24.3163 11.9226 25.3431 12.6076 25.2831 13.6475C25.2815 14.1202 25.0901 14.5731 24.751 14.9073C24.4118 15.2415 23.9523 15.43 23.4727 15.4317H15.116C14.5662 15.4317 13.0875 15.4909 12.6737 14.2298C12.5856 13.9663 12.5736 13.6839 12.6389 13.414C12.7592 13.015 12.9495 12.6398 13.2013 12.3055C13.6215 11.6828 14.0765 11.0601 14.5251 10.456C15.1033 9.66515 15.6973 8.89917 16.2818 8.0927C16.3025 8.06645 16.3138 8.03412 16.3138 8.00082C16.3138 7.96758 16.3025 7.93526 16.2818 7.90901L14.1586 5.41807C14.1448 5.4 14.1269 5.38536 14.1063 5.37528C14.0858 5.36519 14.0631 5.35994 14.0402 5.35994C14.0171 5.35994 13.9945 5.36519 13.9739 5.37528C13.9534 5.38536 13.9355 5.4 13.9217 5.41807C13.3529 6.17469 10.8633 9.52497 10.3325 10.2038C9.80169 10.8826 8.49369 10.9199 7.77016 10.2038L4.44957 6.91886C4.42835 6.89788 4.4013 6.88359 4.37183 6.87779C4.34236 6.87199 4.31182 6.87496 4.28406 6.8863C4.2563 6.89764 4.23258 6.91685 4.21593 6.94149C4.19927 6.96614 4.19041 6.99511 4.19049 7.02472V13.3424C4.1983 13.7907 4.0636 14.2302 3.80523 14.5992C3.54688 14.9683 3.17781 15.2485 2.74977 15.4005C2.47626 15.4943 2.18396 15.5223 1.89723 15.4822C1.61051 15.4421 1.33767 15.335 1.10147 15.1698C0.865273 15.0047 0.672555 14.7863 0.539389 14.5329C0.406222 14.2795 0.336466 13.9983 0.335938 13.7129V2.35421C0.354974 1.94487 0.504428 1.55185 0.763065 1.23101C1.0217 0.910161 1.37636 0.677804 1.77666 0.566955C2.12002 0.476804 2.48146 0.477706 2.82435 0.569569C3.16725 0.661432 3.47941 0.840992 3.72921 1.09005L8.83494 6.12799C8.85016 6.14329 8.86869 6.15509 8.88909 6.16256C8.90956 6.17002 8.93139 6.17297 8.95306 6.17119C8.97481 6.16941 8.99581 6.16294 9.01471 6.15224C9.03361 6.14155 9.04989 6.12689 9.06241 6.1093L12.6895 1.16167C12.857 0.960813 13.0672 0.798496 13.3052 0.686086C13.5431 0.573674 13.8031 0.513887 14.067 0.510909H23.5012C23.7593 0.511328 24.0145 0.566072 24.2495 0.671478C24.4844 0.776886 24.6939 0.930526 24.8638 1.12212C25.0337 1.31372 25.16 1.53886 25.2346 1.78249C25.3091 2.02611 25.3299 2.28259 25.2957 2.5348C25.2293 2.9723 25.004 3.37119 24.6618 3.65748C24.3196 3.94377 23.8836 4.09803 23.4348 4.09164H18.1522C18.1256 4.09227 18.0998 4.09992 18.0772 4.11376C18.0547 4.12761 18.0363 4.14715 18.0241 4.17036C18.0118 4.19358 18.0061 4.2196 18.0075 4.24573C18.0089 4.27186 18.0174 4.29714 18.0321 4.31894Z" fill="#E42575"/>
</svg>
