<svg width="26" height="16" viewBox="0 0 26 16" fill="none" xmlns="http://www.w3.org/2000/svg">
<path d="M18.2079 4.20273L19.6707 5.92147C19.8382 6.11452 19.9867 6.27332 20.0467 6.36362C20.4842 6.7984 20.7295 7.386 20.7292 7.99831C20.6881 8.72064 20.2173 9.21264 19.7813 9.73884L18.7576 10.9407L18.2237 11.5634C18.2045 11.585 18.1922 11.6114 18.1882 11.6398C18.1841 11.6681 18.1886 11.6969 18.2011 11.7228C18.2135 11.7486 18.2333 11.7703 18.2581 11.7851C18.283 11.8 18.3116 11.8073 18.3406 11.8064H23.677C24.4921 11.8064 25.5189 12.4913 25.4589 13.5313C25.4572 14.004 25.2659 14.4569 24.9268 14.7911C24.5876 15.1253 24.1281 15.3138 23.6485 15.3155H15.2917C14.742 15.3155 13.2633 15.3746 12.8494 14.1136C12.7614 13.85 12.7494 13.5677 12.8147 13.2978C12.935 12.8987 13.1253 12.5236 13.3771 12.1893C13.7973 11.5666 14.2522 10.9439 14.7009 10.3398C15.2791 9.54894 15.8731 8.78296 16.4575 7.97649C16.4783 7.95024 16.4896 7.91791 16.4896 7.88461C16.4896 7.85137 16.4783 7.81905 16.4575 7.7928L14.3344 5.30185C14.3206 5.28379 14.3026 5.26915 14.2821 5.25907C14.2615 5.24898 14.2389 5.24373 14.2159 5.24373C14.1929 5.24373 14.1703 5.24898 14.1497 5.25907C14.1292 5.26915 14.1112 5.28379 14.0974 5.30185C13.5287 6.05848 11.0391 9.40876 10.5082 10.0876C9.97747 10.7663 8.66947 10.8037 7.94594 10.0876L4.62535 6.80265C4.60413 6.78167 4.57708 6.76738 4.54761 6.76158C4.51814 6.75578 4.4876 6.75874 4.45984 6.77008C4.43208 6.78143 4.40837 6.80064 4.39171 6.82528C4.37505 6.84993 4.36619 6.8789 4.36627 6.90851V13.2262C4.37408 13.6745 4.23938 14.114 3.98102 14.483C3.72266 14.8521 3.3536 15.1323 2.92555 15.2843C2.65205 15.3781 2.35974 15.4061 2.07302 15.366C1.78629 15.3259 1.51346 15.2188 1.27725 15.0536C1.04105 14.8885 0.848336 14.6701 0.71517 14.4167C0.582004 14.1632 0.512248 13.8821 0.511719 13.5967V2.238C0.530755 1.82866 0.680209 1.43564 0.938846 1.1148C1.19748 0.79395 1.55214 0.561593 1.95244 0.450744C2.2958 0.360593 2.65724 0.361495 3.00014 0.453358C3.34303 0.545221 3.65519 0.724781 3.90499 0.973842L9.01072 6.01177C9.02594 6.02707 9.04447 6.03888 9.06487 6.04635C9.08534 6.05381 9.10717 6.05676 9.12884 6.05497C9.15059 6.0532 9.17159 6.04672 9.19049 6.03603C9.20939 6.02533 9.22567 6.01068 9.23819 5.99309L12.8653 1.04546C13.0328 0.844602 13.243 0.682285 13.4809 0.569875C13.7189 0.457463 13.9789 0.397676 14.2428 0.394698H23.677C23.9351 0.395117 24.1903 0.449861 24.4252 0.555268C24.6602 0.660675 24.8697 0.814315 25.0396 1.00591C25.2094 1.19751 25.3358 1.42265 25.4104 1.66627C25.4848 1.9099 25.5057 2.16638 25.4715 2.41859C25.405 2.85609 25.1798 3.25498 24.8376 3.54127C24.4954 3.82756 24.0594 3.98182 23.6106 3.97543H18.328C18.3014 3.97606 18.2755 3.98371 18.253 3.99755C18.2305 4.0114 18.2121 4.03094 18.1999 4.05415C18.1876 4.07737 18.1819 4.10339 18.1833 4.12952C18.1847 4.15565 18.1932 4.18093 18.2079 4.20273Z" fill="#E42575"/>
</svg>
