<svg width="90" height="50" viewBox="0 0 90 50" fill="none" xmlns="http://www.w3.org/2000/svg">
<path d="M27.0562 43.4078C25.592 43.4078 24.5067 43.0583 23.8003 42.3593C23.1013 41.6603 22.7518 40.5824 22.7518 39.1255V32.5255C22.7518 31.1422 23.0866 30.1158 23.7562 29.4462C24.4331 28.7766 25.4595 28.4418 26.8355 28.4418H29.5726C30.7793 28.4418 31.7138 28.6994 32.376 29.2144C33.0455 29.7221 33.4502 30.4947 33.59 31.5322C33.6342 31.8485 33.5753 32.0914 33.4134 32.2606C33.2516 32.4225 33.0161 32.5034 32.7071 32.5034C32.1479 32.5034 31.8241 32.2017 31.7358 31.5984C31.6475 31.098 31.4378 30.7559 31.1067 30.5719C30.783 30.388 30.2716 30.296 29.5726 30.296H26.8355C25.9672 30.296 25.3786 30.4542 25.0696 30.7706C24.7605 31.0796 24.606 31.6646 24.606 32.5255V34.3576C25.1799 33.6659 25.9967 33.3201 27.0562 33.3201H29.3519C30.8087 33.3201 31.8904 33.6733 32.5967 34.3797C33.3031 35.086 33.6563 36.1676 33.6563 37.6245V39.1035C33.6563 40.5677 33.3031 41.653 32.5967 42.3593C31.8904 43.0583 30.8087 43.4078 29.3519 43.4078H27.0562ZM27.0562 41.5536H29.3519C30.301 41.5536 30.9449 41.3807 31.2833 41.0349C31.6291 40.6817 31.8021 40.0379 31.8021 39.1035V37.6245C31.8021 36.6753 31.6291 36.0315 31.2833 35.6931C30.9375 35.3472 30.2937 35.1743 29.3519 35.1743H27.0562C26.107 35.1743 25.4595 35.3472 25.1137 35.6931C24.7752 36.0389 24.606 36.6753 24.606 37.6024V39.1255C24.606 40.06 24.7752 40.7001 25.1137 41.0459C25.4595 41.3844 26.107 41.5536 27.0562 41.5536ZM44.1396 28.4418C45.6111 28.4418 46.6964 28.7913 47.3954 29.4903C48.0944 30.1893 48.4439 31.2673 48.4439 32.7241V39.3242C48.4439 40.7001 48.1092 41.7266 47.4396 42.4035C46.77 43.0731 45.7436 43.4078 44.3603 43.4078H41.6232C40.4238 43.4078 39.4894 43.154 38.8198 42.6463C38.1576 42.1312 37.7529 41.355 37.6057 40.3175C37.5616 39.9938 37.6204 39.751 37.7823 39.5891C37.9442 39.4272 38.1796 39.3463 38.4887 39.3463C39.0479 39.3463 39.3716 39.6479 39.4599 40.2513C39.5482 40.7443 39.7579 41.0864 40.089 41.2777C40.4201 41.4617 40.9315 41.5536 41.6232 41.5536H44.3603C45.2359 41.5536 45.8245 41.3991 46.1262 41.0901C46.4352 40.7737 46.5898 40.1851 46.5898 39.3242V37.4921C46.0158 38.1837 45.1991 38.5295 44.1396 38.5295H41.8439C40.387 38.5295 39.3054 38.1764 38.599 37.47C37.8927 36.7636 37.5395 35.682 37.5395 34.2252V32.7462C37.5395 31.2746 37.8927 30.1893 38.599 29.4903C39.3054 28.7913 40.387 28.4418 41.8439 28.4418H44.1396ZM44.1396 30.296H41.8439C40.8947 30.296 40.2472 30.4689 39.9014 30.8148C39.5629 31.1606 39.3937 31.8044 39.3937 32.7462V34.2252C39.3937 35.1743 39.5666 35.8218 39.9124 36.1676C40.2656 36.5061 40.9094 36.6753 41.8439 36.6753H44.1396C45.0887 36.6753 45.7326 36.5024 46.071 36.1566C46.4168 35.8108 46.5898 35.1743 46.5898 34.2472V32.7241C46.5898 31.7823 46.4168 31.1422 46.071 30.8037C45.7326 30.4653 45.0887 30.296 44.1396 30.296ZM54.954 36.4325C53.8944 36.4325 53.1035 36.1676 52.5811 35.6379C52.0586 35.1081 51.7974 34.3134 51.7974 33.2539V31.5984C51.7974 30.5388 52.0586 29.7479 52.5811 29.2254C53.1035 28.703 53.8944 28.4418 54.954 28.4418H55.3072C56.3667 28.4418 57.1577 28.7067 57.6801 29.2365C58.2025 29.7589 58.4637 30.5462 58.4637 31.5984V33.2318C58.4637 34.2987 58.2025 35.1007 57.6801 35.6379C57.1577 36.1676 56.3667 36.4325 55.3072 36.4325H54.954ZM53.5192 33.2539C53.5192 33.8352 53.6148 34.2215 53.8061 34.4128C53.9975 34.5967 54.3801 34.6887 54.954 34.6887H55.3072C55.8811 34.6887 56.2637 34.5967 56.455 34.4128C56.6463 34.2215 56.742 33.8278 56.742 33.2318V31.5984C56.742 31.0245 56.6463 30.6455 56.455 30.4616C56.2637 30.2776 55.8811 30.1857 55.3072 30.1857H54.954C54.3801 30.1857 53.9975 30.2776 53.8061 30.4616C53.6148 30.6455 53.5192 31.0245 53.5192 31.5984V33.2539ZM64.843 43.4078C63.7835 43.4078 62.9925 43.1466 62.4701 42.6242C61.9477 42.1018 61.6865 41.3108 61.6865 40.2513V38.5958C61.6865 37.5215 61.9477 36.7268 62.4701 36.2118C62.9925 35.6967 63.7835 35.4392 64.843 35.4392H65.1962C66.2557 35.4392 67.0467 35.7004 67.5691 36.2228C68.0915 36.7452 68.3528 37.5362 68.3528 38.5958V40.2292C68.3528 41.2961 68.0915 42.0944 67.5691 42.6242C67.0467 43.1466 66.2557 43.4078 65.1962 43.4078H64.843ZM63.4082 40.2513C63.4082 40.8252 63.5039 41.2078 63.6952 41.3991C63.8865 41.5904 64.2691 41.6861 64.843 41.6861H65.1962C65.7701 41.6861 66.1527 41.5904 66.344 41.3991C66.5353 41.2005 66.631 40.8105 66.631 40.2292V38.5958C66.631 38.0218 66.5353 37.6392 66.344 37.4479C66.1527 37.2566 65.7701 37.161 65.1962 37.161H64.843C64.2691 37.161 63.8865 37.2529 63.6952 37.4369C63.5039 37.6208 63.4082 38.0071 63.4082 38.5958V40.2513ZM54.954 43.8493C54.7038 43.8493 54.4868 43.7573 54.3028 43.5734C54.1189 43.3894 54.0269 43.1724 54.0269 42.9222C54.0269 42.8192 54.0416 42.7162 54.071 42.6132C54.1078 42.5102 54.152 42.4219 54.2035 42.3483L64.3795 28.8833C64.5781 28.6331 64.8283 28.508 65.13 28.508C65.3875 28.508 65.6046 28.6 65.7812 28.784C65.9651 28.9606 66.0571 29.1776 66.0571 29.4351C66.0571 29.5308 66.0424 29.6301 66.0129 29.7331C65.9835 29.8362 65.9394 29.9281 65.8805 30.0091L55.7045 43.4741C55.5058 43.7242 55.2557 43.8493 54.954 43.8493Z" fill="white"/>
<path d="M86.2256 44.8373C86.2256 22.7411 68.4676 4.82861 46.5619 4.82861C24.6562 4.82861 6.89807 22.7411 6.89807 44.8373" stroke="#29180E" stroke-width="2.75922"/>
<path d="M6.89807 44.8373C6.89807 22.7411 24.7131 4.82861 46.6891 4.82861C59.3677 4.82861 70.6613 10.7907 77.948 20.0786" stroke="#F46A0F" stroke-width="8.27766"/>
</svg>
